# xmcd
#
# Track frame offsets: 
#        150
#        15119
#        25033
#        42725
#        56203
#        72913
#        89129
#        105616
#        121294
#        136144
#
# Disc length: 2033 seconds
#
# Revision: 0
# Processed by: cddbd v1.5.2PL0 Copyright (c) Steve Scherf et al.
# Submitted via: ExactAudioCopy v1.3
#
DISCID=8507ef0a
DTITLE=Paul Christopher - Never Surrender
DYEAR=1999
DGENRE=Country
TTITLE0=Boy Meets Girl
TTITLE1=If Wanting Were Having
TTITLE2=Run Like The Wind
TTITLE3=Dirty Hands Dirty Faces
TTITLE4=Cowboys Lullabye
TTITLE5=That's What I Call Home
TTITLE6=Lying To The Moon
TTITLE7=Same Old Heart
TTITLE8=Never Surrender
TTITLE9=This Old House
EXTD=
EXTT0=
EXTT1=
EXTT2=
EXTT3=
EXTT4=
EXTT5=
EXTT6=
EXTT7=
EXTT8=
EXTT9=
PLAYORDER=
